<?xml version="1.0" ?><!DOCTYPE svg  PUBLIC '-//W3C//DTD SVG 1.1//EN'  'http://www.w3.org/Graphics/SVG/1.1/DTD/svg11.dtd'><svg enable-background="new 0 0 512 512" height="512px" id="Layer_1" version="1.1" viewBox="0 0 512 512" width="512px" xml:space="preserve" xmlns="http://www.w3.org/2000/svg" xmlns:xlink="http://www.w3.org/1999/xlink"><g><path d="M510.689,478.854c0,17.561-14.275,31.836-31.836,31.836H33.146c-17.56,0-31.836-14.275-31.836-31.836   V33.146c0-17.56,14.276-31.836,31.836-31.836h445.707c17.561,0,31.836,14.276,31.836,31.836V478.854z" fill="#EFF8FD"/></g><g><path d="M91.946,365.774l7.109,3.555c-3.083,7.349-6.398,14.813-9.953,22.395   c3.555,6.398,6.871,12.919,9.953,19.551l-7.109,4.621l-7.109-14.574c-0.711,1.188-1.661,3.083-2.844,5.688   c-0.95,1.899-2.727,5.454-5.332,10.664l-7.82-4.621c0.472-0.711,0.944-1.655,1.422-2.844c0.711-1.183,1.183-2.011,1.422-2.488   l-7.465,3.91l-4.977-11.02c-1.188,2.133-2.966,5.332-5.332,9.598c-1.661,3.321-2.966,5.81-3.91,7.465l-6.754-4.977v17.773h-9.598   v-79.625h76.426v66.828c0.233,8.292-3.555,12.441-11.375,12.441c-3.083,0.233-7.704,0.355-13.863,0.355   c-0.478-2.844-1.066-5.927-1.777-9.242c2.844,0.233,6.632,0.355,11.375,0.355c4.499,0.233,6.632-1.655,6.398-5.688v-56.164H43.247   v52.965c0.472-0.944,1.422-2.604,2.844-4.977c3.788-6.87,6.754-12.319,8.887-16.352c-3.793-7.82-7.348-15.046-10.664-21.684   l7.109-3.91l8.176,15.996c2.844-5.448,5.332-10.78,7.465-15.996l6.398,3.199l2.844-1.777c1.183,2.133,2.96,5.332,5.332,9.598   c1.183,2.61,2.133,4.505,2.844,5.688C87.086,376.794,89.574,371.229,91.946,365.774z M79.86,391.724   c-2.844-5.688-5.688-11.136-8.531-16.352c-2.133,5.216-4.621,10.309-7.465,15.285l8.176,16.352   c0.711-1.422,1.777-3.433,3.199-6.043C77.372,396.939,78.91,393.856,79.86,391.724z" fill="#4D4A49"/><path d="M130.336,384.97v-34.836h66.472v34.836h-44.433c-1.661,2.61-3.438,4.977-5.332,7.109h54.031   c0,2.61-0.238,7.704-0.711,15.285c-0.238,3.321-0.355,5.688-0.355,7.109c-0.238,10.664-5.332,15.757-15.285,15.285   c-0.949,0-2.488,0-4.621,0c-3.082,0.233-5.453,0.355-7.109,0.355c-0.239-0.95-0.594-2.372-1.066-4.266   c-0.478-1.899-0.833-3.438-1.066-4.621c3.078,0.233,6.632,0.355,10.664,0.355c6.16,0.472,9.359-2.249,9.598-8.176   c0.473-5.21,0.711-9.714,0.711-13.508h-10.309c-3.793,13.274-12.796,23.933-27.015,31.992c-2.133-2.133-4.621-4.032-7.465-5.688   c13.741-6.87,22.156-15.641,25.238-26.305h-11.02c-6.398,12.797-17.896,22.395-34.48,28.793c-0.239-0.239-0.478-0.478-0.711-0.711   c-2.133-2.844-4.032-4.977-5.688-6.398c15.402-5.21,25.71-12.441,30.926-21.684h-11.375c-4.743,4.505-9.481,8.176-14.219,11.02   c-1.422-2.366-3.438-4.621-6.043-6.754c9.242-4.977,16.468-11.375,21.684-19.195H130.336z M139.934,357.599v6.754h47.277v-6.754   H139.934z M139.934,370.751v7.109h47.277v-7.109H139.934z" fill="#4D4A49"/><path d="M217.426,432.247c-0.239-0.239-0.595-0.833-1.066-1.777c-2.133-3.321-3.794-5.688-4.977-7.109   c17.296-4.977,28.315-12.319,33.059-22.039h-24.527V377.86l-3.199,2.488c-0.239-0.472-0.711-1.183-1.422-2.133   c-0.711-1.183-2.133-3.077-4.266-5.688c11.375-7.581,20.14-16.352,26.305-26.305l10.664,1.422   c-1.422,2.372-2.844,4.505-4.266,6.398h33.413v7.109l-9.953,9.953h19.906v30.215h-32.702c-0.239,0.95-0.711,2.017-1.422,3.199   h9.241v11.73c-0.477,3.555,1.656,5.21,6.398,4.977h11.02c4.027,0.233,6.277-1.3,6.754-4.621c0-0.472,0.117-1.183,0.355-2.133   c0.473-3.555,0.828-6.276,1.066-8.176c0.945,0.239,2.488,0.711,4.621,1.422s3.555,1.188,4.266,1.422   c0,0.478-0.121,0.95-0.355,1.422c-0.477,4.977-1.066,8.531-1.777,10.664c-1.188,5.688-5.453,8.409-12.797,8.176h-16.707   c-8.297,0.233-12.324-3.321-12.085-10.664v-13.863C247.996,415.779,236.144,424.898,217.426,432.247z M264.702,361.864h-27.37   c-2.61,3.321-5.688,6.398-9.242,9.242h27.371L264.702,361.864z M229.156,378.927v14.574h18.129c0-0.233,0.116-0.589,0.355-1.066   v-0.711c0.944-4.026,1.422-8.292,1.422-12.797H229.156z M278.21,378.927h-19.551c-0.477,5.454-1.066,9.837-1.776,13.152   l-0.355,1.422h21.683V378.927z" fill="#4D4A49"/><path d="M305.937,403.099c-0.238-0.472-0.594-1.422-1.066-2.844c-1.188-2.133-2.016-3.671-2.488-4.621   c14.453-2.133,22.867-5.804,25.238-11.02h-20.262l2.844-19.195h19.906c0-2.133,0.117-4.144,0.355-6.043h-23.816v-6.754h23.816   v-6.043h8.887c0,1.899,0,3.91,0,6.043h12.797v-6.043h9.242v6.043h20.617v19.551H361.39v6.043h24.172   c0,0.95-0.121,2.372-0.355,4.266c0,2.133-0.121,3.677-0.355,4.621c-0.238,4.266-2.844,6.282-7.82,6.043   c-3.082,0.239-6.164,0.355-9.242,0.355c0-0.233,0-0.472,0-0.711c-0.238-1.183-0.711-2.488-1.422-3.91c2.605,0,4.977,0,7.109,0   c1.895,0.239,2.961-0.589,3.199-2.488c0-0.472,0-1.066,0-1.777H361.39v7.82h-9.242v-7.82h-14.574   c-1.188,4.032-3.91,7.465-8.176,10.309h46.566v20.617h-9.242v-13.863h-41.945v15.285h-9.242V400.61   c-0.711,0.239-1.777,0.478-3.199,0.711C309.491,402.271,307.358,402.865,305.937,403.099z M381.651,431.536   c-10.664-3.794-22.75-7.587-36.258-11.375c-4.504,5.448-16.707,9.242-36.613,11.375c-1.188-2.844-2.488-5.688-3.91-8.531   c25.594-0.95,37.559-6.87,35.902-17.773h9.598c0,2.844-0.355,5.454-1.066,7.82c1.422,0.478,3.555,1.066,6.398,1.777   c13.031,3.555,22.984,6.165,29.859,7.82L381.651,431.536z M317.667,372.173l-1.066,6.043h13.152c0-0.472,0-1.183,0-2.133   c0.234-0.944,0.355-1.777,0.355-2.488v-1.422H317.667z M338.995,373.95c0,2.133-0.121,3.555-0.355,4.266h13.508v-6.043h-13.152   V373.95z M338.995,359.376c0,1.899,0,3.91,0,6.043h13.152v-6.043H338.995z M373.476,359.376H361.39v6.043h12.086V359.376z" fill="#4D4A49"/><path d="M396.581,427.981v-67.539h16.707v-13.863h8.176v13.863h17.062v67.539h-8.176v-5.688h-25.594v5.688H396.581z    M404.757,368.618v18.84h8.531v-18.84H404.757z M404.757,395.278v19.551h8.531v-19.551H404.757z M430.351,368.618h-8.887v18.84   h8.887V368.618z M421.464,395.278v19.551h8.887v-19.551H421.464z M446.347,431.536v-79.27h30.57v8.887l-8.176,23.105   c6.633,6.398,9.832,13.392,9.598,20.973c0.234,10.192-3.91,15.407-12.441,15.641c-1.422,0.239-3.91,0.355-7.465,0.355   c-0.711-3.315-1.422-6.398-2.133-9.242c1.895,0,4.145,0,6.754,0c4.738,0.239,6.988-2.366,6.754-7.82   c0-5.688-3.32-11.847-9.953-18.484l8.531-24.883h-13.863v70.738H446.347z" fill="#4D4A49"/></g><g><path d="M165.143,105.344l-35.338,189.873H86.141l23.121-123.082l-21.595,0.173l0.618-28.462" fill="#158144"/><path d="M209.562,112.164c7.526-6.82,14.115-8.561,31.544-8.561c8.045,0,15.469,1.078,22.267,3.226   c6.799,2.147,12.594,5.329,17.387,9.536c4.781,4.207,8.508,9.311,11.197,15.311c2.682,6.003,4.025,12.762,4.025,20.276   c0,6.272-0.816,12.094-2.443,17.47c-1.635,5.367-4.166,10.655-7.611,15.841c-3.453,5.2-7.758,10.529-12.932,15.993   c-5.17,5.467-11.303,11.42-18.387,17.859l-46.248,42.176h68.371l-6.609,35.666H149.472l6.894-37.005l72.393-66.501   c8.807-8.227,14.889-15.167,18.24-20.795c3.349-5.625,5.033-11.215,5.033-16.758c0-1.969-0.29-3.932-0.87-5.9   c-0.568-1.966-1.482-3.759-2.725-5.361c-1.248-1.611-2.874-2.906-4.884-3.885c-2.013-0.99-4.553-1.488-7.614-1.488   c-6.126,0-20.924,0.199-24.94,4.582L209.562,112.164z" fill="#158144"/><path d="M372.43,171.854c2.102-0.709,3.92-1.198,5.459-1.465c1.529-0.275,3.639-0.41,6.318-0.41   c6.32,0,12.068,1.257,17.236,3.75c5.176,2.508,9.57,5.953,13.209,10.324c3.639,4.389,6.416,9.527,8.342,15.431   c1.906,5.889,2.865,12.331,2.865,19.301c0,9.665-1.529,19.222-4.598,28.702c-3.066,9.478-7.664,18.012-13.789,25.611   c-6.127,7.6-13.887,13.764-23.266,18.504c-9.387,4.734-20.496,7.107-33.328,7.107c-9.377,0-17.719-1.348-24.986-4.025   c-7.287-2.687-13.412-6.48-18.387-11.396c-4.984-4.916-8.764-10.77-11.348-17.572c-2.592-6.782-3.875-14.379-3.875-22.793   c0-10.726,2.293-21.855,6.891-33.384c4.596-11.534,11.777-23.555,21.541-36.079l51.145-68.115h51.705l-51.424,65.977   L372.43,171.854z M363.641,198.139c-3.998,0-7.664,1.116-10.994,3.352c-3.332,2.238-6.285,5.323-8.852,9.252   c-2.566,3.932-4.57,8.446-5.994,13.541c-1.424,5.098-2.145,10.418-2.145,15.961c0,6.803,1.564,12.381,4.711,16.764   c3.139,4.377,7.664,6.565,13.562,6.565c4.57,0,8.613-1.198,12.129-3.618c3.523-2.411,6.521-5.59,9-9.527   c2.469-3.923,4.324-8.49,5.562-13.676c1.248-5.174,1.863-10.541,1.863-16.084c0-6.261-1.477-11.572-4.43-15.961   C375.102,200.33,370.303,198.139,363.641,198.139z" fill="#158144"/></g></svg>