<svg width="22" height="22" viewBox="0 0 22 22" fill="none" xmlns="http://www.w3.org/2000/svg">
<path d="M18.3688 7.89913C17.9453 6.91294 17.3759 6.06216 16.6607 5.34691C15.9454 4.63167 15.0948 4.06192 14.1085 3.63858C13.1224 3.21485 12.0879 3.00311 11.0046 3.00311C9.98385 3.00311 8.99608 3.19567 8.04104 3.58117C7.08626 3.96603 6.23708 4.51007 5.49427 5.21151L4.13995 3.86757C3.93156 3.65226 3.69209 3.60367 3.42118 3.72169C3.14336 3.83983 3.00452 4.04479 3.00452 4.33644V9.00333C3.00452 9.18387 3.07049 9.34011 3.20243 9.47206C3.3345 9.60401 3.49073 9.66999 3.67125 9.66999H8.33778C8.62953 9.66999 8.83435 9.53113 8.95236 9.25329C9.07036 8.98249 9.02178 8.74288 8.80648 8.53446L7.37942 7.09693C7.86563 6.63856 8.42114 6.28617 9.04658 6.03953C9.67164 5.79302 10.3243 5.66963 11.0049 5.66963C11.7271 5.66963 12.4163 5.81041 13.0722 6.09157C13.7284 6.37286 14.296 6.75312 14.7752 7.23234C15.2543 7.71143 15.6346 8.27913 15.9158 8.93543C16.197 9.59174 16.3376 10.2809 16.3376 11.0029C16.3376 11.7253 16.197 12.4145 15.9158 13.0704C15.6346 13.7267 15.2543 14.2944 14.7752 14.7736C14.296 15.2529 13.7283 15.6331 13.0722 15.9143C12.4159 16.1956 11.7266 16.3362 11.0049 16.3362C10.1784 16.3362 9.39727 16.1557 8.66111 15.7946C7.92508 15.4335 7.3036 14.9231 6.79668 14.2632C6.74809 14.1938 6.66883 14.152 6.55708 14.1381C6.45289 14.1381 6.36608 14.1693 6.29665 14.2318L4.86959 15.6694C4.81411 15.7252 4.78457 15.7961 4.78112 15.883C4.77767 15.9699 4.8003 16.0479 4.84888 16.1173C5.60588 17.0341 6.52244 17.7442 7.59881 18.2476C8.67518 18.751 9.81061 19.0029 11.005 19.0029C12.0883 19.0029 13.1229 18.791 14.1091 18.3674C15.0952 17.9438 15.9456 17.3742 16.6611 16.6591C17.3763 15.9436 17.946 15.093 18.3693 14.1069C18.7928 13.1207 19.0046 12.0858 19.0046 11.0025C19.0046 9.91906 18.7927 8.88467 18.3691 7.89849" fill="black"/>
</svg>
