<?xml version="1.0" encoding="iso-8859-1"?>
<!-- Generator: Adobe Illustrator 19.0.0, SVG Export Plug-In . SVG Version: 6.00 Build 0)  -->
<svg version="1.1" id="Layer_1" xmlns="http://www.w3.org/2000/svg" xmlns:xlink="http://www.w3.org/1999/xlink" x="0px" y="0px"
	 viewBox="0 0 497.01 497.01" style="enable-background:new 0 0 497.01 497.01;" xml:space="preserve">
<g>
	<g>
		<path d="M191.553,118.075V28.036L0,204.142l191.553,176.106v-81.005c185.827,4.923,280.365,147.827,281.313,149.293l13.212,20.438
			l4.721-23.861c4.12-20.832,6.212-42.245,6.212-63.654C497.01,219.243,383.058,121.305,191.553,118.075z M475.043,418.954
			c-34.87-42.043-133.024-139.529-293.337-139.534h-9.846v55.971L29.096,204.142l142.764-131.25v64.793h9.846
			c187.865,0,295.611,88.851,295.611,243.774C477.317,394.002,476.553,406.546,475.043,418.954z"/>
	</g>
</g>
<g>
</g>
<g>
</g>
<g>
</g>
<g>
</g>
<g>
</g>
<g>
</g>
<g>
</g>
<g>
</g>
<g>
</g>
<g>
</g>
<g>
</g>
<g>
</g>
<g>
</g>
<g>
</g>
<g>
</g>
</svg>
