<?xml version="1.0" encoding="iso-8859-1"?>
<!-- Generator: Adobe Illustrator 19.0.0, SVG Export Plug-In . SVG Version: 6.00 Build 0)  -->
<svg version="1.1" id="Capa_1" xmlns="http://www.w3.org/2000/svg" xmlns:xlink="http://www.w3.org/1999/xlink" x="0px" y="0px"
	 viewBox="0 0 75.294 75.294" style="enable-background:new 0 0 75.294 75.294;" xml:space="preserve">
<g>
	<path d="M37.647,4.591L0,27.082v34.423c0,5.071,4.126,9.197,9.197,9.197h56.9c5.071,0,9.197-4.126,9.197-9.197V27.082L37.647,4.591
		z M65.62,28.291L38.013,45.505l-0.143,0.077c-0.023,0.012-0.045,0.023-0.076,0.035l-0.033,0.008
		c-0.078,0.019-0.114,0.02-0.115,0.02c0,0-0.037-0.001-0.134-0.024l-0.017-0.004c-0.025-0.01-0.052-0.023-0.088-0.041
		c-0.039-0.022-0.079-0.044-0.119-0.065L9.675,28.291L37.647,11.58L65.62,28.291z M66.097,64.703h-56.9
		C7.434,64.703,6,63.269,6,61.507V33.07l28.189,17.577c0.103,0.065,0.207,0.123,0.316,0.179c0.059,0.032,0.117,0.063,0.172,0.09
		c0.438,0.226,0.884,0.398,1.305,0.508l0.232,0.055c0.486,0.11,0.967,0.166,1.436,0.166c0.466,0,0.95-0.057,1.439-0.169l0.2-0.046
		c0.443-0.115,0.89-0.288,1.319-0.51c0.062-0.031,0.123-0.063,0.187-0.098l28.499-17.755v28.438
		C69.294,63.269,67.86,64.703,66.097,64.703z"/>
</g>
<g>
</g>
<g>
</g>
<g>
</g>
<g>
</g>
<g>
</g>
<g>
</g>
<g>
</g>
<g>
</g>
<g>
</g>
<g>
</g>
<g>
</g>
<g>
</g>
<g>
</g>
<g>
</g>
<g>
</g>
</svg>
