<svg width="76" height="76" viewBox="0 0 76 76" fill="none" xmlns="http://www.w3.org/2000/svg">
<g clip-path="url(#clip0_102_53)">
<path d="M66.097 12.089H9.197C4.126 12.089 0 16.215 0 21.286V54.008C0 59.079 4.126 63.205 9.197 63.205H66.097C71.168 63.205 75.294 59.079 75.294 54.008V21.287C75.295 16.215 71.169 12.089 66.097 12.089ZM61.603 18.089L37.647 33.523L13.691 18.089H61.603ZM66.097 57.206H9.197C7.434 57.206 6 55.771 6 54.009V21.457L35.796 40.617C35.836 40.642 35.879 40.659 35.92 40.682C35.963 40.706 36.007 40.729 36.051 40.751C36.282 40.87 36.52 40.966 36.763 41.029C36.788 41.036 36.813 41.039 36.838 41.045C37.105 41.108 37.375 41.147 37.645 41.147C37.646 41.147 37.647 41.147 37.647 41.147C37.649 41.147 37.65 41.147 37.651 41.147C37.921 41.147 38.191 41.109 38.458 41.045C38.483 41.039 38.508 41.036 38.533 41.029C38.776 40.966 39.013 40.87 39.245 40.751C39.289 40.729 39.333 40.706 39.376 40.682C39.417 40.659 39.46 40.642 39.5 40.617L69.296 21.457V54.008C69.295 55.771 67.86 57.206 66.097 57.206Z" fill="white"/>
</g>
<defs>
<clipPath id="clip0_102_53">
<rect width="75.294" height="75.294" fill="white"/>
</clipPath>
</defs>
</svg>
