<svg width="123" height="123" viewBox="0 0 123 123" fill="none" xmlns="http://www.w3.org/2000/svg">
<g clip-path="url(#clip0_103_2)">
<path d="M18 18C28.0535 7.94725 41.2818 1.69158 55.4307 0.298918C69.5795 -1.09374 83.7736 2.46278 95.5941 10.3625C107.415 18.2621 116.13 30.0162 120.256 43.6217C124.382 57.2272 123.662 71.8423 118.219 84.9766C112.777 98.1109 102.949 108.952 90.4091 115.652C77.8696 122.352 63.3948 124.497 49.4513 121.721C35.5077 118.944 22.9581 111.419 13.9409 100.428C4.92371 89.4357 -0.00307947 75.6572 2.65376e-05 61.44C-0.00748277 53.3707 1.57875 45.3794 4.66769 37.9248C7.75662 30.4702 12.2874 23.699 18 18V18ZM77.38 39L83.91 45.54C84.652 46.289 85.0682 47.3007 85.0682 48.355C85.0682 49.4093 84.652 50.4209 83.91 51.17L73.6 61.44L83.91 71.75C84.652 72.499 85.0682 73.5107 85.0682 74.565C85.0682 75.6193 84.652 76.6309 83.91 77.38L77.38 83.91C76.631 84.6519 75.6193 85.0682 74.565 85.0682C73.5107 85.0682 72.4991 84.6519 71.75 83.91L61.44 73.6L51.13 83.91C50.381 84.6519 49.3693 85.0682 48.315 85.0682C47.2607 85.0682 46.2491 84.6519 45.5 83.91L39 77.38C38.2581 76.6309 37.8418 75.6193 37.8418 74.565C37.8418 73.5107 38.2581 72.499 39 71.75L49.28 61.44L39 51.13C38.2581 50.3809 37.8418 49.3693 37.8418 48.315C37.8418 47.2607 38.2581 46.249 39 45.5L45.5 39C46.2491 38.258 47.2607 37.8418 48.315 37.8418C49.3693 37.8418 50.381 38.258 51.13 39L61.44 49.28L71.75 39C72.4991 38.258 73.5107 37.8418 74.565 37.8418C75.6193 37.8418 76.631 38.258 77.38 39ZM61.44 10.54C49.6618 10.5405 38.2481 14.625 29.1437 22.0975C20.0393 29.5699 13.8075 39.968 11.5102 51.5201C9.21288 63.0721 10.9921 75.0634 16.5448 85.4507C22.0975 95.8379 31.08 103.979 41.9619 108.485C52.8438 112.992 64.9517 113.587 76.2227 110.167C87.4936 106.748 97.2303 99.526 103.774 89.7325C110.317 79.939 113.262 68.1797 112.107 56.4581C110.952 44.7366 105.769 33.7782 97.44 25.45C92.715 20.7191 87.103 16.9669 80.9255 14.4084C74.748 11.8499 68.1264 10.5353 61.44 10.54V10.54Z" fill="white"/>
</g>
<defs>
<clipPath id="clip0_103_2">
<rect width="122.87" height="122.87" fill="white"/>
</clipPath>
</defs>
</svg>
