<svg width="498" height="498" viewBox="0 0 498 498" fill="none" xmlns="http://www.w3.org/2000/svg">
<g clip-path="url(#clip0_0_1)">
<path d="M191.553 118.075V28.036L0 204.142L191.553 380.248V299.243C377.38 304.166 471.918 447.07 472.866 448.536L486.078 468.974L490.799 445.113C494.919 424.281 497.011 402.868 497.011 381.459C497.01 219.243 383.058 121.305 191.553 118.075ZM475.043 418.954C440.173 376.911 342.019 279.425 181.706 279.42H171.86V335.391L29.096 204.142L171.86 72.892V137.685H181.706C369.571 137.685 477.317 226.536 477.317 381.459C477.317 394.002 476.553 406.546 475.043 418.954Z" fill="white"/>
</g>
<defs>
<clipPath id="clip0_0_1">
<rect width="497.01" height="497.01" fill="white"/>
</clipPath>
</defs>
</svg>
