<svg width="512" height="512" viewBox="0 0 512 512" fill="none" xmlns="http://www.w3.org/2000/svg">
<path d="M509.532 34.999C507.24 32.766 503.854 32.075 500.874 33.235L5.21303 225.734C2.26703 226.878 0.246026 229.617 0.021026 232.768C-0.203974 235.919 1.40703 238.917 4.15903 240.468L106.878 298.343L142.529 472.602C142.751 473.834 143.252 474.981 143.971 475.966C144.043 476.065 144.102 476.141 144.162 476.217C145.418 477.788 147.199 478.885 149.275 479.217C149.54 479.259 149.806 479.289 150.07 479.305C150.241 479.316 150.411 479.321 150.581 479.321C152.14 479.321 153.617 478.876 154.876 478.093C155.302 477.829 155.707 477.524 156.083 477.178C156.2 477.07 156.302 476.973 156.401 476.872L233.724 399.352C236.91 396.157 236.904 390.983 233.709 387.797C230.511 384.609 225.341 384.617 222.154 387.812L161.415 448.706L174.539 336.312L360.034 438.126C361.902 439.146 363.978 439.365 365.88 438.906C366.089 438.855 366.28 438.801 366.469 438.74C368.347 438.131 369.995 436.863 371.043 435.043C371.096 434.949 371.143 434.864 371.189 434.779C371.401 434.375 371.571 433.979 371.706 433.577L511.521 43.608C512.6 40.596 511.824 37.23 509.532 34.999ZM27.232 234.712L432.364 77.371L113.843 283.511L27.232 234.712ZM162.72 316.936C161.956 317.549 161.291 318.31 160.771 319.203C160.703 319.32 160.639 319.438 160.577 319.557C160.081 320.516 159.793 321.529 159.698 322.543L148.365 419.6L123.258 296.882L398.363 118.84L162.72 316.936ZM359.507 419.195L182.223 321.888L485.928 66.574L359.507 419.195Z" fill="white"/>
</svg>
