<svg width="76" height="76" viewBox="0 0 76 76" fill="none" xmlns="http://www.w3.org/2000/svg">
<g clip-path="url(#clip0_105_2)">
<path d="M37.647 4.591L0 27.082V61.505C0 66.576 4.126 70.702 9.197 70.702H66.097C71.168 70.702 75.294 66.576 75.294 61.505V27.082L37.647 4.591ZM65.62 28.291L38.013 45.505L37.87 45.582C37.847 45.594 37.825 45.605 37.794 45.617L37.761 45.625C37.683 45.644 37.647 45.645 37.646 45.645C37.646 45.645 37.609 45.644 37.512 45.621L37.495 45.617C37.47 45.607 37.443 45.594 37.407 45.576C37.368 45.554 37.328 45.532 37.288 45.511L9.675 28.291L37.647 11.58L65.62 28.291ZM66.097 64.703H9.197C7.434 64.703 6 63.269 6 61.507V33.07L34.189 50.647C34.292 50.712 34.396 50.77 34.505 50.826C34.564 50.858 34.622 50.889 34.677 50.916C35.115 51.142 35.561 51.314 35.982 51.424L36.214 51.479C36.7 51.589 37.181 51.645 37.65 51.645C38.116 51.645 38.6 51.588 39.089 51.476L39.289 51.43C39.732 51.315 40.179 51.142 40.608 50.92C40.67 50.889 40.731 50.857 40.795 50.822L69.294 33.067V61.505C69.294 63.269 67.86 64.703 66.097 64.703Z" fill="white"/>
</g>
<defs>
<clipPath id="clip0_105_2">
<rect width="75.294" height="75.294" fill="white"/>
</clipPath>
</defs>
</svg>
